<svg id="Layer_1" data-name="Layer 1" xmlns="http://www.w3.org/2000/svg" viewBox="0 0 132.8 57.2"><defs><style>.cls-1{fill:#fff;}</style></defs><g id="logo_Digi2L" data-name="logo Digi2L"><g id="Group_136907" data-name="Group 136907"><g id="Group_136906" data-name="Group 136906"><g id="Group_136905" data-name="Group 136905"><g id="Group_136903" data-name="Group 136903"><path id="Path_150347" data-name="Path 150347" class="cls-1" d="M81.19,23a.63.63,0,0,0-.84.21A82.47,82.47,0,0,1,72.07,33a31.23,31.23,0,0,1,2-5c.7-1.45,1.39-2.78,1.94-3.84,1.16-2.23,1.56-3,1.5-3.46-.08-.69-1.57-2.12-2.28-2.54-1-.59-1.45-.34-1.6-.2a.41.41,0,0,0-.1.49l.14.27.14,0h0A3.91,3.91,0,0,1,73.32,21c-.52,1.18-1.17,2.52-1.87,4C70,28,68.41,31.15,68,33.14l0,.17-1.22.33a25.56,25.56,0,0,0,1.5-6.22v-.08s0-.08,0-.13a1.79,1.79,0,0,0,0-.23v0a2.67,2.67,0,0,0-.85-1.26c1.08-.82,2.77-2.54,2.63-3.35a3.7,3.7,0,0,0-2-2.57,5.64,5.64,0,0,0-3.67-.57C61,19.78,56,24.88,53.05,29.48a73.28,73.28,0,0,1-6.83,7.9,28.82,28.82,0,0,1,2-5c.7-1.46,1.39-2.79,1.94-3.85,1.15-2.23,1.56-3,1.5-3.46-.09-.69-1.57-2.12-2.28-2.54-1-.59-1.45-.34-1.6-.2a.39.39,0,0,0-.1.49l.13.27.15,0h0a3.91,3.91,0,0,1-.49,2.27c-.52,1.18-1.18,2.53-1.88,3.95l-.33.68c-.61,0-1.32,0-2.1,0a12.27,12.27,0,0,0,.39-5.45C42,15.38,33,12,25.32,12.77c-9,.86-16,5.15-19,9a6.41,6.41,0,0,0-1.63,4.76c.36,2.13,2.73,2.82,3,2.9a12.31,12.31,0,0,0,4.8.17c.5,0,.66-.33.66-.57a.6.6,0,0,0-.63-.54c-2.49-.15-3.92-.59-4-1.25a4.38,4.38,0,0,1,1.19-3c2.76-3.67,9.6-8,16.84-8.84a20.29,20.29,0,0,1,8.58.86c3.21,1.15,5,3.19,5.34,6a14.42,14.42,0,0,1-1.58,7.87c-3.15.25-6.27.65-7.86.92-1.77.3-3.59.67-5.23,1.05.37-.64.78-1.38,1.21-2.15.54-1,1.09-1.94,1.63-2.88,3.08-5.36,3.7-6.65,3.72-7.09C32.31,19.28,31,17.7,30,17a2.69,2.69,0,0,0-1.36-.56h0a.61.61,0,0,0-.58.33.42.42,0,0,0,.15.5l0,0,.05,0c.11,0,.16.34.18.5.08,1.19-1.25,3.58-2.95,6.61l-.34.62L20.33,33.7C10.57,36.77,2.86,41.53.66,45.86a5,5,0,0,0-.44,3.88c1.4,4.11,8.53,4.88,11.4,4.52a4.83,4.83,0,0,0,2.73,2.82,1.36,1.36,0,0,0,.5.12.5.5,0,0,0,.33-.12.47.47,0,0,0,.13-.45l0-.08-.06-.07c-.18-.22-.41-.92.06-3.1A49.23,49.23,0,0,0,31.85,44.7c5.24-4.13,9.06-8.81,10.79-13.2l2-.15a30.39,30.39,0,0,0-2.43,6.15,1.9,1.9,0,0,0,0,.67c.1.83,1.07,1.7,1.93,2.23a2.64,2.64,0,0,0,1.8.49c1-.17,3.49-3.37,4.86-5.24a2.89,2.89,0,0,0,0,.29,4.54,4.54,0,0,0,1.7,2.42,5.24,5.24,0,0,0,1.58.89c-1.39.79-2.72,1.61-4,2.44-4.48,3-8.71,7.23-8.07,9.85.79,3.18,5.34,4.78,8.73,4,4.5-1,9.61-8,11.95-12.53a70,70,0,0,0,3.4-7.48l.73-.27,1.6-.59A5.67,5.67,0,0,0,69.91,36a2.64,2.64,0,0,0,1.8.49c1.52-.26,6.12-7,6.17-7.08,1.59-2.35,2.91-4.47,3.54-5.67A.6.6,0,0,0,81.19,23ZM37.8,32.11C33.9,38.52,26.08,44.76,17,48.68a96.29,96.29,0,0,1,6.89-13.4,47.38,47.38,0,0,1,7.77-2.17c2.27-.39,4.27-.73,6.12-1ZM3.31,50.51A1.68,1.68,0,0,1,3.15,49c.94-3.3,7.66-8.39,15.22-11.6-1,2-1.8,3.6-2.45,5l-.33.71a66.82,66.82,0,0,0-3.1,7.35,32.15,32.15,0,0,1-5.13,1.12c-1,.17-3.23,0-4-1.06ZM60.53,38.1c-.6,1.34-1.23,2.66-1.84,3.88C56,47.24,51.06,52.92,46.93,53.62a1.33,1.33,0,0,1-1.53-1c-.35-1.4,1.32-4,4.48-7A52.74,52.74,0,0,1,60.53,38.1ZM65,24.48a.57.57,0,0,0-.45.31L64.5,25l.31.36.12,0a.19.19,0,0,1,.12.13c0,.17-.22.67-1.38,2.08l-.13.16a55.42,55.42,0,0,1-9.14,8.51,34.67,34.67,0,0,1,5.1-8.82c2.35-3.1,4.72-5.24,6.68-6a3.22,3.22,0,0,1,.69-.2l.22,0a.47.47,0,0,1,.48.31c.16.4-.29,1.88-1.21,3.45A2.07,2.07,0,0,0,65,24.48Zm-1.8,6.34.47-.61c-.6,1.69-1.31,3.52-2,5.27-1.4.59-2.81,1.24-4.2,1.93a72,72,0,0,0,5.75-6.59Z"/><g id="Group_136902" data-name="Group 136902"><path id="Path_150348" data-name="Path 150348" class="cls-1" d="M80.45,12a5.43,5.43,0,0,0-2.67-2.83C76.61,8.67,76.17,9,76,9.1l-.48.52.69.15c.22.05.28.29.3.39a13.55,13.55,0,0,1-1,5.6.8.8,0,0,0,.37.85.84.84,0,0,0,.44.13,1,1,0,0,0,.62-.26h0a30.1,30.1,0,0,0,3.35-4l0,0A.66.66,0,0,0,80.45,12Z"/><path id="Path_150349" data-name="Path 150349" class="cls-1" d="M51.91,13.56c-1.17-.51-1.6-.22-1.74-.08l-.48.52.69.15a.44.44,0,0,1,.3.39,13.42,13.42,0,0,1-1,5.6.81.81,0,0,0,.37.85.86.86,0,0,0,.44.12.9.9,0,0,0,.62-.25h0a29.29,29.29,0,0,0,3.34-4l0,0a.65.65,0,0,0,.07-.39A5.33,5.33,0,0,0,51.91,13.56Z"/></g></g><g id="Group_136904" data-name="Group 136904"><path id="Path_150350" data-name="Path 150350" class="cls-1" d="M104.94,31.64c-4.44-2.25-11.52-2.94-16.48-2.41,6.72-6,17.07-17.45,16.37-21.58-.32-1.93-3.66-6-8.64-5.19C92.43,3.09,88.36,5.78,85,9.82c-2.93,3.53-4.66,7.32-4.3,9.43.4,2.4,3.1,3.66,5.27,3.3,3.21-.54,6.43-7.06,7.12-9.45v0a.53.53,0,0,0-.28-.64.59.59,0,0,0-.72.23l0,0c-2.06,3.44-6.38,8.07-7.43,8.24-.34.06-.54,0-.62-.47-.2-1.16,1.35-4.8,4-8.36C89.84,9.6,93.57,5.3,98,4.56c.87-.14,2.94-.34,3.18,1.06.78,4.61-13.46,20.58-18.22,24.93l-.66.23c-4.15,1.46-8.45,3-8,5.7.18,1.06,1,2.48,1.85,2.48h.13c1.27-.21,3.86-2,7.71-5.4a32.1,32.1,0,0,1,7.34-1.84,32.88,32.88,0,0,1,13.17.86h.07a.65.65,0,0,0,.66-.42A.46.46,0,0,0,104.94,31.64Z"/><path id="Path_150351" data-name="Path 150351" class="cls-1" d="M132.53,14.6c-4.2-2.35-16.3,6.61-19.91,9.41-5.61,4.35-7.49,4.38-8,4.2-.23-.08-.26-.22-.26-.22-.19-.94,3.44-8.54,4.92-11.42l6.3-12.89,0-.06a.79.79,0,0,0,.05-.37c-.1-.72-2-2.48-2.64-2.87-1-.59-1.45-.34-1.6-.2a.41.41,0,0,0-.1.49l.14.27.17,0a.08.08,0,0,1,0,0c.06.11.2.6-.31,2.13-.75,2.24-2.92,6.63-5,10.88l-1.41,2.87c-1.86,3.77-4.17,8.87-4.55,10.84a1.94,1.94,0,0,0,0,.68c.1.83,1.06,1.69,1.93,2.23a3.64,3.64,0,0,0,1.7.49h.45c4.36,0,9-4.6,9.38-5,11.91-9.86,16.34-10.71,17.69-10.61.7.05,1.21.05,1.34-.35A.49.49,0,0,0,132.53,14.6Z"/></g></g></g></g><g id="Group_136908" data-name="Group 136908"><path id="Path_150352" data-name="Path 150352" class="cls-1" d="M121.93,33a13.18,13.18,0,0,0-1.59-4h0a1.16,1.16,0,0,0-1.13-.58,11.45,11.45,0,0,0-3.83,1.1,12.27,12.27,0,0,0-1.68,1,8.87,8.87,0,0,0-.78.59h0a.34.34,0,0,0,0,.48.33.33,0,0,0,.28.11h0q.5,0,1-.12c.63-.09,1.25-.2,1.86-.3s1.15-.2,1.72-.28a1.52,1.52,0,0,1,.67.05l-.11.08c-.79.79-1.58,1.57-2.41,2.33a49.37,49.37,0,0,1-5.25,4.21c-1,.64-1.92,1.26-2.94,1.83-.5.3-1,.56-1.55.83s-1.07.52-1.62.75a30.21,30.21,0,0,1-3.4,1.26,31.94,31.94,0,0,1-3.59.9,35.74,35.74,0,0,1-3.72.5A36.63,36.63,0,0,1,90,43.8c-1.26,0-2.52-.11-3.78-.23l-.94-.11-.93-.13-.94-.14L82.51,43a60.29,60.29,0,0,1-7.24-1.8c-1.19-.36-2.36-.76-3.52-1.18-.46-.17-.92.27-.52.5l0,0c1,.58,2.08,1.11,3.19,1.61a43,43,0,0,0,7.16,2.49c1.27.32,2.59.59,3.94.8a40.86,40.86,0,0,0,4.14.41,37.84,37.84,0,0,0,4.26,0,38.15,38.15,0,0,0,4.26-.54,35.7,35.7,0,0,0,4.1-1l1-.34,1-.37c.32-.12.62-.26.93-.39l.46-.2.45-.21c.61-.28,1.18-.59,1.75-.89s1.12-.63,1.64-1c.26-.17.53-.33.78-.51l.76-.52c.25-.18.48-.37.72-.55s.48-.36.7-.55A31.39,31.39,0,0,0,119,31.38a1.45,1.45,0,0,1,.3.4h0c.3.56.6,1.13.88,1.72l.42.88c.14.3.28.6.41.9s.14.31.2.46l.2.47h0a.33.33,0,0,0,.64,0,7.83,7.83,0,0,0,.07-1.08A10.81,10.81,0,0,0,121.93,33Z"/><path id="Path_150353" data-name="Path 150353" class="cls-1" d="M91.45,46.33c-.6,0-1.2,0-1.79,0a42,42,0,0,1-4.18-.42c-1.29-.2-2.63-.47-4-.8a45.26,45.26,0,0,1-7.24-2.51C73.11,42,72,41.48,71.05,40.92h0a.64.64,0,0,1-.3-.83,1,1,0,0,1,1.17-.41c1.13.42,2.31.81,3.5,1.18a59.43,59.43,0,0,0,7.19,1.78l.92.16.92.15.93.12.34,0,.59.07c1.37.14,2.59.21,3.75.23a36,36,0,0,0,3.74-.11,34.8,34.8,0,0,0,3.67-.5,32.68,32.68,0,0,0,3.54-.88,30,30,0,0,0,3.36-1.25c.43-.18.85-.38,1.25-.57l.35-.17c.17-.1.35-.19.53-.28.33-.17.68-.35,1-.53.9-.5,1.82-1.08,2.91-1.82a47.56,47.56,0,0,0,5.2-4.18c.57-.52,1.16-1.08,1.78-1.7l-1.31.22-.09,0c-.57.1-1.17.2-1.77.28l-1,.13a.75.75,0,0,1-.77-.46.74.74,0,0,1,.2-.85c.25-.2.5-.39.82-.61a11.65,11.65,0,0,1,1.74-1,11.86,11.86,0,0,1,4-1.14,1.57,1.57,0,0,1,1.52.78,13.08,13.08,0,0,1,1.64,4.13h0a10.34,10.34,0,0,1,.24,2.22,8.42,8.42,0,0,1-.07,1.12.71.71,0,0,1-.62.62.75.75,0,0,1-.8-.45h0a2.44,2.44,0,0,0-.1-.24,2.14,2.14,0,0,0-.1-.22c-.07-.17-.13-.32-.2-.47l0-.09-.37-.81-.42-.88c-.3-.61-.56-1.12-.81-1.58a32,32,0,0,1-6.34,6.95l-.5.4-.21.16-.25.19-.49.37-.76.52c-.16.12-.34.24-.52.35l-.27.17c-.45.3-1,.59-1.42.86l-.24.13-.33.18c-.46.24-1,.5-1.45.73l-.44.21-.32.14-.16.07-.32.14-.63.25-1,.37-1,.34a36.6,36.6,0,0,1-4.15,1.07,38.88,38.88,0,0,1-4.3.55C93.12,46.3,92.28,46.33,91.45,46.33ZM72.26,40.67c.73.39,1.52.77,2.35,1.15a43.52,43.52,0,0,0,7.1,2.46c1.32.33,2.63.6,3.9.79a40.36,40.36,0,0,0,4.1.41,37,37,0,0,0,4.21,0,33,33,0,0,0,4.21-.54,35.33,35.33,0,0,0,4.05-1l1-.34.95-.36.6-.25.32-.13.16-.07.29-.13.45-.21c.48-.22,1-.47,1.41-.71l.32-.17.22-.13c.47-.27.95-.54,1.38-.83l.29-.18c.17-.11.33-.21.48-.32l.76-.53.46-.34.25-.2.22-.16.47-.38a31,31,0,0,0,6.35-7c-.86.87-1.64,1.62-2.39,2.31a50.22,50.22,0,0,1-5.3,4.24c-1.11.76-2,1.35-3,1.86-.32.19-.68.37-1,.55l-.54.28h0l-.36.17c-.41.2-.84.4-1.28.59a32.21,32.21,0,0,1-3.44,1.27,32.44,32.44,0,0,1-3.62.9,34.29,34.29,0,0,1-3.76.51,34.82,34.82,0,0,1-3.82.12c-1.18,0-2.43-.1-3.82-.24l-.61-.07-.33,0-1-.13-.94-.14-.93-.16a64.64,64.64,0,0,1-7.29-1.8C74.17,41.32,73.2,41,72.26,40.67Zm47-9.65.08.07a2.28,2.28,0,0,1,.38.5c.27.51.55,1.06.89,1.74l.42.89c.13.27.25.55.38.82l0,.09c.07.16.14.31.2.47a1.73,1.73,0,0,1,.1.24c0-.23,0-.47,0-.73a10.9,10.9,0,0,0-.22-2h0A12.91,12.91,0,0,0,120,29.18a.81.81,0,0,0-.75-.4,11.11,11.11,0,0,0-3.69,1.07,13.87,13.87,0,0,0-1.63.95l-.58.43.73-.1,1.75-.28.1,0,1.73-.28a1.84,1.84,0,0,1,.84.06l.44.14h0l.48.15Z"/></g><g id="Group_136910" data-name="Group 136910"><g id="Group_136909" data-name="Group 136909"><path id="Path_150354" data-name="Path 150354" class="cls-1" d="M126,8.25,124,6.85l-1.9,1.38.19-.65v0l0,0,.1-.32L122.85,6l-1-.74-.25-.19,0,0,0,0L121,4.6h2.35c.13-.39.25-.79.38-1.18l.11-.33V3l0,0,.22-.65.72,2.25h2.38L125.22,6Zm-3.62-3.2.86.62a.3.3,0,0,1,.12.36L123,7,124,6.28l1,.76-.4-1.23,1-.76h-1.29L124,3.82l-.33,1a.29.29,0,0,1-.31.22h-1.06Z"/></g></g></g></svg>