<?xml version="1.0" standalone="no"?>
<!DOCTYPE svg PUBLIC "-//W3C//DTD SVG 20010904//EN"
 "http://www.w3.org/TR/2001/REC-SVG-20010904/DTD/svg10.dtd">
<svg version="1.0" xmlns="http://www.w3.org/2000/svg"
 width="14847.000000pt" height="7992.000000pt" viewBox="0 0 14847.000000 7992.000000"
 preserveAspectRatio="xMidYMid meet">

<g transform="translate(0.000000,7992.000000) scale(0.100000,-0.100000)"
fill="#000000" stroke="none">
<path d="M141825 72604 c-61 -28 -223 -103 -325 -149 -58 -26 -152 -69 -210
-95 -175 -81 -350 -160 -450 -205 -52 -24 -185 -84 -295 -135 -110 -51 -267
-123 -350 -160 -82 -37 -199 -91 -259 -119 -59 -28 -110 -51 -112 -51 -4 0
-272 -122 -437 -199 -49 -23 -90 -41 -92 -41 -2 0 -50 -22 -107 -49 -56 -27
-168 -78 -248 -114 -80 -36 -185 -84 -235 -108 -49 -23 -153 -70 -230 -104
-195 -88 -422 -192 -470 -215 -22 -11 -195 -90 -385 -176 -377 -171 -760 -345
-885 -403 -44 -21 -126 -57 -182 -82 l-102 -44 -27 -60 c-14 -33 -53 -116 -85
-183 -33 -68 -59 -125 -59 -127 0 -4 -36 -82 -205 -445 -35 -74 -89 -191 -120
-260 -32 -69 -78 -168 -102 -220 -25 -52 -51 -108 -58 -125 -7 -16 -32 -70
-55 -120 -24 -49 -66 -142 -95 -205 -29 -63 -73 -159 -99 -213 -25 -53 -46
-99 -46 -101 0 -2 -23 -53 -51 -112 -28 -60 -67 -143 -86 -184 -42 -89 -250
-537 -338 -730 -34 -74 -101 -218 -147 -320 -47 -102 -119 -257 -160 -345 -42
-88 -126 -270 -188 -404 -61 -135 -130 -283 -152 -330 -22 -47 -93 -201 -158
-341 -65 -140 -136 -293 -158 -340 -22 -47 -92 -200 -157 -340 -65 -140 -146
-316 -180 -390 -35 -74 -115 -250 -180 -390 -64 -140 -134 -291 -155 -335 -21
-44 -63 -134 -93 -200 -52 -114 -158 -344 -225 -485 -17 -36 -54 -117 -82
-180 -29 -63 -73 -158 -97 -210 -25 -52 -96 -205 -158 -340 -62 -135 -129
-279 -148 -320 -104 -219 -177 -383 -174 -387 11 -10 749 263 1082 400 756
311 1480 669 2145 1061 398 234 962 608 1315 871 145 109 359 274 393 305 10
8 51 42 92 75 89 71 404 339 475 405 28 26 111 102 185 170 74 69 227 217 340
330 1207 1210 2113 2604 2694 4145 373 988 608 2011 705 3066 28 301 33 379
24 378 -5 0 -21 -7 -38 -15z m-2662 -3211 c3 -5 1 -95 -4 -201 -49 -1108 -509
-2073 -1380 -2897 -511 -483 -1174 -927 -1939 -1298 -193 -94 -284 -136 -502
-235 -37 -17 -70 -27 -72 -23 -3 4 22 62 55 130 32 68 59 124 59 126 0 2 30
65 66 141 36 77 111 236 166 354 55 118 120 258 145 310 42 88 184 391 358
760 40 85 92 196 115 245 77 163 132 279 160 340 15 33 69 148 120 255 51 107
123 260 160 340 88 190 119 255 205 437 l73 151 83 40 c46 22 179 86 294 142
313 152 524 255 680 330 77 37 219 106 315 153 96 46 288 139 425 206 138 67
284 139 325 160 82 43 87 44 93 34z"/>
<path d="M142765 72510 c-277 -73 -490 -282 -580 -570 -32 -102 -42 -211 -34
-345 20 -321 228 -614 519 -732 145 -58 345 -68 490 -25 339 101 572 408 596
785 26 410 -240 791 -620 887 -104 26 -272 27 -371 0z m381 -21 c401 -105 667
-558 578 -986 -38 -187 -107 -316 -239 -448 -151 -152 -324 -225 -530 -225
-551 0 -933 578 -745 1128 139 408 539 635 936 531z"/>
<path d="M142650 72099 c0 -2 -1 -194 -3 -427 l-2 -422 58 0 57 0 0 185 0 185
80 0 c138 0 157 -16 287 -236 l78 -133 68 0 c37 -1 67 2 67 5 0 22 -165 279
-207 323 -29 30 -52 55 -50 56 1 1 22 7 47 14 56 16 134 92 143 141 10 48 8
110 -4 154 -14 50 -78 119 -126 135 -34 12 -493 30 -493 20z m432 -119 c73
-20 103 -97 69 -175 -29 -65 -60 -75 -243 -82 l-148 -6 0 139 0 139 142 -3
c79 -1 160 -7 180 -12z"/>
<path d="M126567 71833 c-3 -5 -30 -73 -62 -153 -31 -80 -63 -158 -71 -175 -7
-16 -56 -138 -110 -270 -129 -323 -408 -1014 -483 -1200 -34 -82 -61 -153 -61
-157 0 -4 1108 -9 2463 -10 l2462 -3 85 -24 c162 -45 294 -126 421 -257 114
-120 187 -251 237 -432 23 -86 26 -115 26 -252 0 -130 -3 -169 -23 -240 -51
-193 -131 -332 -266 -465 -159 -158 -334 -239 -553 -256 -65 -5 -1140 -9
-2427 -9 l-2310 0 -3 -21 c-4 -24 51 -80 468 -474 52 -49 140 -132 195 -184
263 -250 306 -291 380 -361 44 -42 181 -172 305 -290 468 -445 607 -578 700
-665 95 -90 207 -196 395 -375 55 -53 141 -134 190 -181 50 -47 191 -181 315
-299 124 -118 270 -257 325 -309 55 -52 145 -138 200 -190 55 -53 141 -134
190 -181 50 -47 135 -128 190 -180 55 -52 183 -174 285 -270 323 -307 633
-602 700 -666 36 -35 79 -75 95 -90 17 -14 77 -72 135 -128 58 -55 146 -139
195 -186 50 -47 138 -130 195 -185 58 -55 186 -176 285 -270 99 -93 193 -183
209 -198 16 -16 32 -25 37 -20 4 4 30 58 57 118 120 266 237 527 274 610 22
50 51 113 63 140 13 28 54 118 90 200 37 83 79 175 92 205 14 30 43 96 65 145
22 50 57 128 78 175 21 47 49 111 64 142 l26 58 -113 117 c-62 65 -151 159
-197 208 -46 50 -172 182 -279 295 -170 178 -496 521 -556 584 -196 209 -368
390 -441 466 -50 52 -120 126 -155 163 -35 38 -99 105 -141 150 -43 45 -74 84
-70 88 4 3 39 11 77 18 39 7 131 28 205 47 747 185 1331 574 1705 1134 213
319 339 661 406 1100 19 122 22 188 22 420 1 374 -30 650 -109 971 -223 913
-765 1562 -1567 1878 -193 77 -318 113 -602 174 l-100 22 -2102 3 c-1156 1
-2104 -1 -2106 -5z"/>
<path d="M54020 64539 c-726 -41 -1325 -126 -2015 -285 -285 -66 -760 -210
-1055 -319 -594 -220 -1033 -432 -1620 -783 -248 -148 -654 -432 -950 -666
-439 -346 -969 -854 -1396 -1337 -820 -928 -1450 -1955 -1884 -3074 -350 -903
-572 -1871 -669 -2920 -106 -1133 -63 -2327 119 -3379 185 -1062 493 -2014
952 -2936 323 -649 682 -1216 1121 -1768 470 -592 1035 -1155 1652 -1647 450
-358 952 -699 1401 -951 159 -89 538 -280 694 -349 974 -433 2080 -704 3260
-799 1880 -153 3557 102 5345 812 276 109 709 299 878 383 l77 39 0 3020 c0
1673 -4 3020 -9 3020 -4 0 -61 -59 -126 -131 -314 -348 -833 -835 -1150 -1078
-949 -728 -1807 -1089 -2865 -1208 -194 -21 -855 -25 -1050 -5 -755 76 -1300
223 -1876 508 -755 373 -1435 972 -1951 1719 -495 717 -816 1572 -928 2470
-41 333 -47 418 -52 832 -6 442 1 623 38 981 126 1248 562 2334 1284 3198 715
856 1609 1408 2670 1650 612 139 1327 180 1932 109 129 -15 144 -17 263 -36
1106 -179 2142 -736 3164 -1703 163 -154 426 -419 556 -561 45 -49 86 -91 91
-93 5 -2 9 1237 9 3012 l0 3016 -57 29 c-216 108 -698 313 -1118 476 -266 103
-694 246 -1025 340 -817 234 -1646 372 -2485 415 -232 11 -1013 11 -1225 -1z"/>
<path d="M32625 64523 c-430 -11 -1098 -69 -1405 -123 -30 -5 -100 -17 -155
-25 -516 -82 -1126 -235 -1687 -424 -1489 -503 -2849 -1319 -3958 -2376 -296
-282 -636 -634 -831 -860 -606 -703 -1040 -1349 -1439 -2140 -343 -681 -589
-1346 -774 -2090 -52 -211 -129 -569 -147 -685 -4 -30 -13 -82 -19 -115 -36
-207 -88 -627 -110 -900 -31 -390 -41 -1086 -20 -1470 73 -1341 364 -2554 895
-3739 248 -555 649 -1254 971 -1694 35 -48 96 -132 136 -186 439 -600 1067
-1268 1739 -1851 378 -328 884 -697 1339 -977 357 -219 875 -493 1235 -653
1272 -565 2539 -870 3930 -945 242 -13 901 -13 1155 0 1293 66 2542 355 3730
860 143 61 161 69 390 176 515 238 1113 582 1595 917 991 687 1815 1481 2515
2423 183 247 188 255 301 424 513 773 895 1552 1184 2415 46 138 88 266 94
285 5 19 26 91 46 160 451 1552 527 3394 209 5035 -195 1002 -531 1954 -1007
2854 -97 182 -260 470 -312 551 -13 19 -65 100 -115 180 -270 424 -637 913
-946 1260 -17 19 -69 78 -115 130 -217 245 -671 689 -964 942 -480 414 -853
683 -1530 1101 -337 209 -999 536 -1480 732 -1392 568 -2929 847 -4450 808z
m865 -4707 c615 -74 1099 -209 1590 -442 1091 -521 2047 -1532 2585 -2734 362
-809 545 -1730 545 -2745 0 -1276 -268 -2364 -818 -3325 -56 -98 -64 -111
-197 -315 -193 -298 -418 -569 -719 -870 -415 -414 -785 -685 -1262 -926 -550
-277 -1092 -430 -1774 -501 -198 -21 -901 -18 -1115 5 -1078 113 -1943 476
-2730 1146 -112 95 -433 413 -510 506 -28 33 -81 95 -118 139 -150 176 -350
458 -499 706 -414 688 -686 1507 -798 2400 -47 373 -54 515 -54 1020 -1 508 7
641 55 1025 172 1362 737 2545 1659 3476 841 849 1858 1330 3040 1439 63 5
133 12 155 14 22 2 218 3 435 1 288 -2 432 -7 530 -19z"/>
<path d="M119755 64524 c-579 -21 -957 -51 -1395 -110 -1677 -224 -3212 -791
-4550 -1679 -571 -380 -1046 -764 -1520 -1232 -411 -405 -724 -765 -1071
-1230 -131 -175 -385 -546 -454 -663 -21 -36 -53 -89 -72 -118 -141 -216 -452
-816 -594 -1142 -349 -805 -591 -1635 -733 -2510 -54 -333 -100 -744 -128
-1150 -18 -254 -18 -1274 0 -1515 64 -877 189 -1593 413 -2375 211 -737 547
-1557 892 -2180 35 -63 78 -142 96 -175 137 -248 402 -663 589 -925 687 -959
1624 -1866 2606 -2519 97 -64 373 -237 436 -273 25 -14 86 -49 135 -78 193
-113 640 -336 886 -443 1165 -506 2397 -783 3904 -878 278 -17 1151 -23 1488
-10 1340 53 2486 252 3582 625 766 260 1449 593 2110 1031 328 217 676 484
970 746 192 171 523 502 694 694 121 137 398 475 479 585 18 25 49 68 70 95
170 229 390 572 564 880 615 1087 1034 2349 1259 3788 112 719 169 1462 184
2377 5 356 -7 1128 -22 1298 l-6 72 -5428 0 -5429 0 0 -2125 0 -2125 2746 0
2746 0 -6 -57 c-17 -138 -52 -306 -112 -532 -132 -495 -374 -970 -711 -1395
-114 -143 -445 -477 -593 -597 -859 -699 -1851 -1073 -3130 -1181 -238 -20
-977 -17 -1200 5 -705 70 -1268 222 -1825 492 -93 45 -200 101 -238 124 -37
22 -70 41 -72 41 -9 0 -314 204 -385 256 -419 312 -813 726 -1120 1179 -527
779 -849 1679 -1000 2795 -86 641 -104 1487 -44 2180 107 1251 439 2286 1007
3140 637 957 1499 1605 2560 1924 341 103 694 171 1107 213 250 25 956 25
1180 0 684 -78 1200 -227 1755 -508 674 -341 1294 -870 1862 -1589 6 -8 42
-55 79 -105 37 -49 69 -92 70 -94 2 -2 34 11 71 29 37 18 122 59 188 90 145
69 314 150 495 238 74 35 236 113 360 172 124 59 340 163 480 230 140 67 298
143 350 167 52 25 187 90 299 144 112 55 205 99 207 99 2 0 109 52 240 115
130 63 238 115 239 115 1 0 92 43 201 96 274 133 465 224 469 224 1 0 113 54
249 120 135 66 248 120 250 120 2 0 95 44 207 99 112 54 267 128 343 165 77
37 142 68 144 71 4 4 -191 289 -249 365 -14 19 -68 91 -119 160 -488 656
-1133 1334 -1745 1835 -1237 1013 -2626 1678 -4255 2039 -98 22 -348 70 -550
106 -403 72 -979 133 -1505 159 -206 11 -854 20 -1000 15z"/>
<path d="M6712 53933 l3 -10138 2588 -3 2587 -2 0 3960 c0 2178 3 3960 8 3960
4 0 39 -55 77 -121 39 -67 93 -160 121 -208 92 -157 206 -354 226 -390 11 -20
24 -40 28 -46 4 -5 94 -158 200 -340 228 -390 276 -472 439 -750 68 -115 231
-394 363 -620 133 -225 260 -443 284 -483 24 -40 44 -75 44 -78 0 -3 8 -18 19
-32 10 -15 121 -202 246 -417 125 -214 265 -453 310 -530 46 -77 121 -205 167
-285 47 -80 147 -251 223 -380 210 -358 374 -638 395 -673 10 -18 116 -198
235 -402 119 -203 225 -383 234 -400 9 -16 55 -95 103 -175 47 -80 141 -239
208 -355 68 -115 167 -284 220 -375 53 -91 152 -259 219 -375 68 -115 151
-257 186 -315 34 -58 70 -120 79 -137 l17 -33 3119 0 c2378 0 3120 3 3120 12
0 6 -6 19 -14 27 -7 9 -93 135 -191 281 -180 267 -331 492 -500 740 -50 74
-163 241 -250 370 -87 129 -200 296 -250 370 -50 74 -177 261 -280 415 -104
154 -277 411 -385 570 -108 160 -272 403 -365 540 -93 138 -223 331 -290 430
-67 99 -184 272 -260 385 -76 113 -180 266 -230 340 -131 193 -317 468 -500
740 -87 129 -253 375 -368 545 -291 428 -412 608 -568 839 -74 110 -240 356
-369 548 -129 191 -335 496 -457 677 -123 181 -223 334 -223 340 0 5 51 21
113 35 113 27 373 96 457 121 927 286 1613 658 2232 1212 300 269 613 640 830
985 357 567 604 1209 743 1927 87 452 135 981 135 1501 0 843 -124 1606 -379
2339 -58 165 -74 207 -179 451 -67 157 -210 436 -308 600 -367 616 -804 1113
-1359 1546 -450 352 -1024 659 -1625 869 -718 252 -1430 372 -2660 450 -1039
65 -1738 75 -5518 75 l-3052 0 2 -10137z m6853 5868 c598 -45 1023 -129 1405
-278 797 -311 1220 -914 1345 -1918 49 -402 41 -904 -21 -1220 -91 -467 -279
-833 -575 -1121 -164 -158 -324 -269 -563 -387 -264 -131 -675 -250 -1051
-306 -470 -69 -541 -73 -1423 -80 -431 -3 -786 -4 -788 -2 -7 8 -4 5318 4
5326 10 11 1498 -2 1667 -14z"/>
<path d="M61080 53930 l0 -10140 2733 2 2732 3 5 4541 5 4542 320 -441 c176
-243 386 -531 466 -641 426 -586 1037 -1427 1073 -1477 22 -32 68 -95 102
-141 33 -46 109 -150 168 -233 60 -82 127 -175 149 -205 70 -95 131 -178 162
-222 17 -24 56 -77 86 -118 71 -96 556 -765 583 -806 12 -16 39 -52 60 -80 21
-27 161 -220 313 -429 151 -209 307 -425 348 -480 40 -55 88 -121 107 -147 50
-71 249 -346 356 -493 202 -276 161 -219 884 -1215 929 -1280 1353 -1865 1388
-1912 l33 -48 3329 0 3328 0 0 145 c0 80 3 145 8 145 4 -1 58 -66 120 -145
l113 -145 2670 0 2669 0 0 10140 0 10140 -2790 0 -2790 0 -2 -9981 -3 -9980
-104 133 c-58 73 -142 180 -188 238 -45 58 -186 238 -313 400 -127 162 -268
342 -314 400 -45 58 -123 156 -172 219 -49 63 -116 148 -149 190 -33 42 -150
191 -259 331 -110 140 -231 296 -271 345 -39 50 -152 194 -251 320 -387 495
-483 617 -639 815 -89 113 -253 322 -365 465 -319 408 -378 483 -467 595 -45
58 -186 238 -313 400 -127 162 -268 342 -313 400 -84 106 -143 181 -412 525
-82 105 -173 220 -202 258 -29 37 -77 97 -106 135 -29 37 -87 110 -128 162
-42 52 -156 199 -255 325 -387 494 -483 617 -639 815 -89 113 -269 342 -400
510 -131 168 -261 334 -290 370 -164 208 -234 297 -310 395 -47 61 -130 166
-183 233 -53 68 -126 161 -162 207 -36 46 -117 151 -181 232 -197 251 -396
504 -455 581 l-56 72 74 98 c41 53 138 180 214 282 120 158 441 582 1068 1410
77 102 174 230 217 286 42 56 165 218 273 360 198 262 359 474 670 884 94 124
263 347 376 497 113 149 264 349 337 445 312 411 446 588 624 823 104 138 257
340 340 450 84 110 220 290 304 400 83 110 216 286 295 390 79 105 241 318
360 475 119 157 278 366 352 465 75 99 226 298 335 442 109 143 320 422 468
618 149 196 335 443 415 549 609 800 753 991 757 1003 4 11 -533 13 -3210 13
l-3216 0 -107 -152 c-59 -84 -137 -196 -173 -248 -36 -52 -110 -158 -164 -235
-54 -77 -175 -251 -270 -388 -95 -136 -212 -306 -262 -376 -49 -71 -121 -175
-160 -231 -38 -56 -101 -146 -140 -200 -38 -55 -110 -158 -160 -230 -124 -180
-474 -682 -526 -755 -23 -33 -128 -184 -233 -335 -105 -151 -194 -279 -199
-285 -4 -5 -116 -165 -247 -355 -131 -190 -243 -349 -247 -355 -7 -8 -305
-435 -492 -705 -24 -36 -76 -110 -115 -165 -117 -168 -169 -242 -221 -318 -27
-40 -117 -169 -200 -287 -82 -118 -177 -254 -210 -302 -33 -48 -114 -165 -181
-260 -133 -191 -331 -474 -406 -583 -27 -38 -79 -113 -116 -166 -37 -52 -125
-178 -195 -280 -136 -194 -171 -245 -355 -509 -64 -91 -191 -274 -283 -407
-93 -133 -187 -269 -211 -302 -24 -33 -99 -141 -168 -241 -69 -99 -164 -236
-211 -303 -47 -68 -102 -147 -122 -176 l-37 -53 0 4601 0 4601 -2735 0 -2735
0 0 -10140z"/>
<path d="M87882 53933 l3 -10138 2662 0 2663 0 0 6303 c0 3466 4 6302 8 6302
7 0 295 -390 447 -606 17 -23 45 -62 63 -86 19 -23 157 -214 308 -423 151
-209 297 -409 324 -445 27 -36 85 -123 129 -195 184 -297 216 -346 351 -525
23 -30 125 -170 227 -310 161 -221 359 -491 668 -914 44 -60 96 -130 115 -157
19 -26 123 -168 230 -314 107 -147 218 -298 245 -335 100 -138 646 -884 837
-1145 33 -44 83 -114 113 -155 30 -41 137 -187 238 -325 100 -137 305 -416
453 -620 149 -203 319 -435 377 -515 59 -80 167 -228 240 -328 72 -101 150
-207 172 -235 23 -29 73 -97 113 -152 75 -105 358 -493 627 -859 88 -120 175
-239 193 -265 18 -25 52 -72 75 -103 79 -107 352 -479 387 -527 19 -27 61 -84
92 -127 31 -44 226 -311 434 -594 207 -283 396 -540 418 -571 23 -31 118 -162
212 -290 94 -129 369 -504 610 -835 242 -330 449 -613 461 -627 l21 -27 2648
2 2649 3 3 10138 2 10137 -2652 -2 -2653 -3 -3 -5045 c-3 -5107 -1 -5479 33
-6080 27 -463 76 -1064 121 -1473 9 -77 13 -141 11 -143 -4 -4 -76 92 -245
324 -34 48 -83 114 -108 147 -50 67 -147 198 -374 510 -84 116 -212 290 -284
388 -72 98 -147 200 -166 226 -19 27 -61 84 -92 127 -239 328 -299 413 -345
486 -44 71 -272 389 -419 583 -57 76 -140 189 -444 605 -300 411 -386 528
-444 605 -25 33 -185 251 -357 485 -171 234 -332 453 -358 487 -25 35 -63 86
-84 115 -22 29 -71 96 -109 148 -39 52 -139 190 -224 305 -84 116 -220 300
-301 411 -241 327 -575 783 -613 835 -19 27 -114 155 -210 286 -96 131 -264
360 -373 508 -109 149 -220 299 -247 335 -27 36 -187 254 -356 485 -414 566
-475 650 -528 720 -44 58 -414 562 -540 734 -33 46 -98 134 -143 195 -45 61
-98 134 -118 161 -21 28 -69 93 -107 145 -39 52 -141 191 -227 309 -86 117
-203 278 -261 356 -58 79 -202 275 -320 436 -118 161 -237 324 -265 361 -27
37 -66 89 -85 115 -19 27 -98 134 -175 239 -77 105 -203 277 -280 382 l-140
191 -2668 1 -2667 0 2 -10137z"/>
<path d="M119225 41343 c-553 -26 -681 -36 -1075 -79 -1201 -130 -2363 -429
-3365 -867 -1327 -579 -2461 -1392 -3471 -2487 -126 -137 -454 -529 -514 -616
-8 -11 -62 -83 -119 -160 -58 -76 -168 -233 -245 -349 -689 -1028 -1155 -2164
-1410 -3435 -252 -1262 -293 -2699 -111 -3950 259 -1780 1002 -3242 2181
-4289 175 -156 178 -158 323 -276 534 -432 1205 -849 1986 -1234 271 -134 362
-176 661 -309 104 -46 414 -176 519 -217 39 -15 115 -45 170 -67 148 -59 308
-118 615 -228 657 -233 1236 -410 2210 -675 1220 -333 2307 -702 3005 -1022
627 -287 1029 -543 1315 -839 455 -469 704 -1037 796 -1809 26 -216 26 -726 1
-915 -91 -676 -347 -1210 -812 -1689 -303 -313 -642 -560 -1030 -751 -222
-110 -319 -149 -539 -221 -347 -114 -751 -190 -1161 -219 -183 -13 -652 -13
-847 0 -603 41 -1212 168 -1818 380 -369 130 -568 214 -955 405 -777 385
-1479 850 -2270 1504 -82 68 -186 156 -230 195 -44 39 -98 87 -120 105 -52 44
-194 173 -370 336 -182 168 -732 719 -904 905 -74 80 -157 170 -185 200 -28
30 -107 117 -176 193 -97 108 -126 135 -135 125 -7 -7 -136 -218 -287 -468
-152 -250 -367 -606 -478 -790 -201 -331 -352 -581 -370 -610 -5 -8 -28 -46
-51 -85 -45 -75 -291 -480 -594 -980 -103 -170 -221 -364 -260 -430 -40 -66
-111 -183 -157 -260 -47 -77 -142 -234 -212 -350 -70 -115 -132 -214 -137
-219 -5 -6 -9 249 -9 672 l0 682 -5400 0 -5400 0 -2 12218 -3 12217 -4343 0
-4342 0 0 -15865 c0 -9006 -4 -15860 -9 -15855 -4 6 -20 44 -34 85 -14 41 -71
208 -127 370 -56 162 -126 365 -155 450 -29 85 -90 261 -135 390 -124 357
-267 771 -440 1275 -32 94 -95 274 -138 400 -165 473 -410 1184 -546 1580 -59
171 -117 339 -130 375 -13 36 -59 166 -101 290 -43 124 -112 326 -155 450 -43
124 -104 299 -135 390 -31 91 -96 280 -145 420 -49 140 -116 336 -150 435 -33
99 -74 216 -90 260 -16 44 -97 278 -180 520 -84 242 -192 557 -242 700 -144
416 -287 831 -328 950 -171 496 -428 1240 -460 1330 -21 61 -66 191 -100 290
-34 99 -77 223 -95 275 -44 127 -130 376 -203 590 -33 96 -94 272 -135 390
-78 223 -205 591 -382 1105 -57 165 -140 406 -185 535 -45 129 -128 370 -185
535 -57 165 -138 399 -180 520 -42 121 -123 355 -180 520 -57 165 -129 374
-160 465 -31 91 -79 228 -105 305 -27 77 -85 246 -130 375 -83 239 -227 655
-327 945 -113 331 -174 507 -252 730 -43 127 -124 361 -179 520 -55 160 -137
396 -182 525 -76 219 -119 345 -390 1130 -56 162 -115 333 -132 380 -16 47
-79 227 -138 400 -60 173 -145 421 -190 550 -149 430 -192 555 -206 600 -8 25
-25 74 -39 110 -13 36 -94 270 -180 520 -86 250 -192 556 -235 680 -43 124
-129 371 -190 550 -61 179 -122 354 -135 390 -13 36 -119 342 -235 680 -116
338 -224 651 -240 695 -16 44 -57 161 -90 260 -34 99 -101 295 -150 435 -49
140 -136 392 -193 560 -58 168 -164 474 -235 680 -72 206 -178 512 -235 680
-58 168 -142 411 -187 540 -45 129 -128 370 -185 535 -57 165 -138 399 -180
520 -42 121 -103 297 -135 390 -32 94 -81 235 -108 315 -28 80 -95 276 -150
435 -55 160 -108 313 -119 340 l-19 50 -5446 3 -5445 2 -26 -72 c-14 -40 -39
-116 -57 -168 -17 -52 -42 -124 -55 -160 -13 -36 -72 -204 -131 -375 -58 -170
-146 -425 -194 -565 -48 -140 -156 -453 -240 -695 -83 -242 -176 -512 -207
-600 -204 -592 -271 -787 -343 -995 -45 -129 -106 -305 -135 -390 -174 -506
-256 -744 -280 -810 -15 -41 -37 -106 -50 -145 -12 -38 -46 -137 -75 -220 -29
-82 -81 -233 -115 -335 -35 -102 -100 -291 -145 -420 -110 -317 -271 -783
-331 -960 -28 -80 -70 -201 -94 -270 -24 -69 -70 -199 -100 -290 -31 -91 -71
-208 -90 -260 -35 -99 -47 -135 -300 -870 -163 -475 -215 -625 -285 -825 -23
-66 -88 -255 -145 -420 -212 -616 -239 -694 -497 -1440 -49 -143 -139 -404
-200 -580 -61 -176 -129 -376 -153 -445 -24 -69 -84 -244 -135 -390 -50 -146
-100 -290 -110 -320 -10 -30 -32 -93 -49 -140 -16 -47 -75 -218 -131 -380 -56
-162 -125 -365 -155 -450 -29 -85 -101 -292 -159 -460 -57 -168 -141 -411
-186 -540 -136 -391 -169 -488 -230 -665 -58 -169 -216 -628 -312 -905 -28
-80 -78 -228 -113 -330 -35 -102 -72 -210 -83 -240 -12 -30 -71 -201 -132
-380 -157 -459 -282 -820 -345 -1000 -30 -85 -80 -229 -110 -320 -31 -91 -96
-280 -145 -420 -49 -140 -159 -460 -245 -710 -164 -477 -216 -627 -285 -825
-38 -110 -164 -476 -305 -885 -58 -168 -202 -585 -280 -810 -24 -69 -88 -255
-143 -415 -55 -159 -149 -429 -207 -600 -59 -170 -126 -366 -150 -435 -24 -69
-71 -206 -105 -305 -34 -99 -76 -223 -95 -275 -18 -52 -59 -169 -90 -260 -31
-91 -76 -221 -100 -290 -24 -69 -69 -199 -100 -290 -142 -413 -267 -775 -305
-885 -74 -212 -125 -361 -285 -825 -86 -250 -169 -491 -185 -535 -27 -75 -61
-175 -210 -610 -34 -99 -83 -242 -111 -319 -27 -76 -49 -145 -49 -152 0 -8 -3
-14 -7 -14 -5 0 -7 886 -5 1970 l2 1970 -22 5 c-13 3 -2504 4 -5536 3 l-5512
-3 2 2690 3 2690 5209 3 c2865 1 5211 4 5213 5 1 2 3 1540 3 3418 l0 3414
-5215 3 -5215 2 0 2765 0 2765 5535 0 5535 0 -2 3493 -3 3492 -9770 0 -9770 0
0 -15940 0 -15940 9228 -3 c7499 -2 9227 0 9227 11 0 7 58 181 129 387 71 206
155 449 186 540 128 370 268 778 345 1000 103 295 273 789 353 1025 l62 180 3
-1573 2 -1572 3780 0 3779 0 11 43 c6 23 17 62 25 87 8 25 40 133 70 240 53
184 310 1071 415 1430 105 362 184 632 225 775 24 83 55 191 70 240 15 50 69
236 121 415 51 179 131 456 178 615 46 160 118 409 161 555 42 146 92 318 111
383 19 64 50 171 69 237 19 66 51 175 71 243 20 67 56 191 80 275 24 85 46
158 49 163 4 5 2417 9 6176 9 4927 0 6170 -3 6174 -12 8 -28 78 -275 135 -478
33 -118 67 -237 75 -265 8 -27 58 -203 110 -390 108 -381 121 -429 269 -950
111 -393 180 -636 271 -960 58 -205 86 -305 269 -950 57 -203 132 -469 166
-590 34 -121 90 -319 125 -440 34 -121 91 -322 126 -447 l64 -228 4302 0 4302
0 3 53 3 52 18 -53 19 -52 9724 0 9724 0 0 1315 c0 822 4 1315 9 1315 6 0 36
-21 68 -48 180 -147 605 -466 884 -662 1435 -1008 2902 -1720 4449 -2159 384
-109 424 -120 755 -196 1260 -291 2643 -432 4045 -411 1625 23 2926 210 4313
620 48 14 187 59 310 100 1437 479 2688 1189 3792 2150 429 375 913 872 1245
1281 69 84 297 383 392 513 48 66 251 369 307 457 10 17 36 57 56 90 89 140
304 525 397 710 627 1243 999 2614 1123 4140 29 367 36 514 42 975 9 730 -22
1280 -108 1895 -157 1126 -487 2170 -973 3083 -335 628 -775 1234 -1242 1708
-106 107 -147 146 -275 260 -305 270 -844 633 -1368 918 -157 86 -661 338
-811 406 -442 199 -959 414 -1317 546 -54 20 -134 50 -178 66 -737 273 -1977
663 -2840 893 -55 15 -188 51 -295 81 -107 30 -242 68 -300 84 -1475 409
-2324 732 -2960 1128 -586 365 -954 845 -1114 1452 -55 212 -75 362 -83 627
-16 581 132 1063 462 1497 53 71 244 284 277 311 7 6 48 41 91 78 207 180 422
320 702 457 470 230 941 350 1578 401 189 15 843 6 1057 -15 772 -74 1500
-249 2265 -544 278 -107 514 -213 820 -367 237 -119 647 -345 735 -405 14 -9
68 -43 120 -75 365 -225 782 -522 1200 -854 135 -108 264 -213 288 -235 25
-23 46 -36 52 -30 4 5 62 133 128 284 66 151 204 469 307 705 103 237 198 455
210 485 13 30 41 96 63 145 21 50 117 268 212 485 95 217 191 436 212 485 22
50 50 115 63 145 12 30 61 143 108 250 47 107 130 299 185 425 136 314 219
503 324 745 151 345 159 363 188 430 15 36 82 189 147 340 66 151 179 410 251
575 71 165 171 395 222 510 50 116 94 215 97 222 11 27 -801 538 -1252 788
-27 15 -95 53 -150 83 -432 240 -1101 562 -1555 747 -58 24 -143 58 -190 77
-358 146 -981 364 -1365 477 -1327 392 -2701 614 -4228 681 -201 9 -1149 11
-1312 3z m-46447 -6158 c532 -2189 865 -3504 1003 -3970 28 -93 75 -246 104
-340 29 -93 66 -215 83 -270 17 -55 90 -291 162 -525 72 -234 145 -470 162
-525 17 -55 45 -147 64 -205 18 -58 126 -406 239 -775 204 -664 242 -784 335
-1085 111 -355 263 -848 275 -890 11 -40 130 -425 346 -1120 38 -124 83 -268
99 -320 16 -52 89 -291 164 -530 74 -239 152 -493 174 -565 22 -71 88 -285
147 -475 59 -190 171 -554 250 -810 144 -467 240 -777 400 -1295 48 -154 93
-300 100 -325 7 -25 43 -142 80 -260 73 -235 85 -274 85 -277 0 -2 -1944 -3
-4321 -3 -3453 0 -4320 3 -4316 13 6 17 303 989 342 1122 18 61 60 200 94 310
72 235 96 311 191 625 76 250 104 342 199 650 32 107 64 211 69 230 9 32 124
410 192 630 31 100 161 528 300 985 45 149 88 288 95 310 7 22 23 74 35 115
33 110 168 554 239 785 22 72 71 234 110 360 38 127 95 313 126 415 31 102 63
205 70 230 7 25 45 151 85 280 40 129 78 255 85 280 7 25 31 104 53 175 199
648 327 1067 337 1105 7 25 94 313 195 640 397 1301 398 1304 564 1900 93 336
202 746 312 1175 42 165 105 413 141 550 146 568 338 1344 425 1717 23 103 46
184 49 180 4 -4 29 -101 57 -217z m35810 -22980 l-3 -858 -185 154 c-237 197
-301 251 -434 368 -148 130 -519 467 -635 577 l-94 90 133 219 c73 121 142
236 154 256 12 19 36 60 54 90 19 30 99 162 179 294 80 132 159 263 176 290
58 96 461 761 556 919 l96 160 3 -851 c1 -468 1 -1237 0 -1708z"/>
<path d="M6707 40583 c-4 -3 -7 -7179 -7 -15945 l0 -15939 4918 4 c4798 4
5123 6 6047 37 1554 52 2742 129 3875 251 263 28 795 95 995 125 94 14 199 30
235 35 100 15 410 67 560 95 74 14 169 31 210 39 222 40 697 151 1010 236
1537 416 2864 985 4125 1768 1099 683 2198 1606 3031 2547 153 173 207 236
284 329 41 50 77 92 80 95 16 15 256 320 323 410 43 58 97 130 120 160 247
321 680 996 935 1455 27 50 58 106 69 125 116 206 385 755 530 1085 533 1205
940 2617 1147 3980 15 94 31 195 36 225 16 93 78 604 99 820 40 402 67 777 86
1205 16 344 13 1586 -4 1910 -31 578 -72 1061 -136 1570 -37 293 -43 338 -100
680 -268 1637 -747 3143 -1437 4520 -548 1093 -1228 2099 -2017 2985 -443 498
-975 1010 -1501 1446 -622 517 -1299 986 -1999 1388 -1394 800 -3043 1407
-4726 1740 -99 20 -202 41 -230 46 -412 82 -1359 211 -2060 280 -1150 113
-2749 209 -4095 245 -113 3 -275 8 -360 10 -380 12 -1163 26 -1975 35 -980 11
-8058 14 -8068 3z m10828 -7133 c822 -28 1536 -95 2255 -211 64 -10 97 -16
330 -59 827 -153 1598 -384 2305 -693 131 -57 403 -190 505 -247 52 -29 120
-66 150 -83 338 -184 794 -504 1080 -756 604 -532 1084 -1160 1460 -1911 558
-1113 850 -2356 952 -4040 17 -283 17 -1362 0 -1640 -32 -524 -78 -1004 -122
-1275 -5 -33 -21 -134 -35 -225 -55 -344 -153 -789 -251 -1139 -54 -193 -205
-637 -278 -819 -124 -306 -290 -651 -421 -877 -32 -55 -72 -125 -90 -155 -36
-62 -158 -248 -236 -360 -1182 -1691 -3199 -2676 -6139 -3000 -291 -32 -670
-63 -965 -80 -104 -5 -219 -13 -255 -16 -36 -4 -606 -9 -1268 -13 l-1202 -6 0
8808 0 8807 968 0 c532 0 1098 -5 1257 -10z"/>
</g>
</svg>
