<svg xmlns="http://www.w3.org/2000/svg" xmlns:xlink="http://www.w3.org/1999/xlink" width="132.797" height="57.2" viewBox="0 0 132.797 57.2">
  <defs>
    <linearGradient id="linear-gradient" y1="0.5" x2="1" y2="0.5" gradientUnits="objectBoundingBox">
      <stop offset="0" stop-color="#c335f8"/>
      <stop offset="0.153" stop-color="#b732f4"/>
      <stop offset="0.428" stop-color="#9829e8"/>
      <stop offset="0.79" stop-color="#661ad6"/>
      <stop offset="0.946" stop-color="#4e13cd"/>
    </linearGradient>
    <linearGradient id="linear-gradient-2" x1="0" y1="0.5" x2="1" y2="0.5" xlink:href="#linear-gradient"/>
    <linearGradient id="linear-gradient-3" x1="0" y1="0.5" x2="1.001" y2="0.5" xlink:href="#linear-gradient"/>
    <linearGradient id="linear-gradient-4" x1="0" y1="0.5" x2="1" y2="0.5" xlink:href="#linear-gradient"/>
    <linearGradient id="linear-gradient-5" x1="0" y1="0.5" x2="1" y2="0.5" xlink:href="#linear-gradient"/>
  </defs>
  <g id="logo_Digi2L" data-name="logo Digi2L" transform="translate(-130.098 -363.407)">
    <g id="Group_136907" data-name="Group 136907" transform="translate(130.098 363.407)">
      <g id="Group_136906" data-name="Group 136906" transform="translate(0 0)">
        <g id="Group_136905" data-name="Group 136905">
          <g id="Group_136903" data-name="Group 136903" transform="translate(0 8.893)">
            <path id="Path_150347" data-name="Path 150347" d="M211.294,451.9a.627.627,0,0,0-.834.214,83.041,83.041,0,0,1-8.281,9.815,29.509,29.509,0,0,1,2-5c.7-1.459,1.39-2.781,1.941-3.842,1.155-2.229,1.56-3.036,1.5-3.466-.086-.685-1.574-2.115-2.284-2.537-1-.59-1.45-.337-1.6-.2a.412.412,0,0,0-.1.492l.136.271.146-.024v0a3.882,3.882,0,0,1-.492,2.269c-.518,1.181-1.174,2.527-1.871,3.951-1.493,3.063-3.039,6.23-3.436,8.221-.013.06-.024.118-.032.172-.342.086-.7.178-1.223.324a25.494,25.494,0,0,0,1.5-6.214l0-.078c0-.029-.006-.084-.01-.138a2.062,2.062,0,0,0-.019-.224l0-.026a2.653,2.653,0,0,0-.852-1.257c1.079-.816,2.773-2.542,2.635-3.353a3.709,3.709,0,0,0-1.965-2.567,5.679,5.679,0,0,0-3.672-.569c-3.389.573-8.415,5.669-11.323,10.273a72.624,72.624,0,0,1-6.834,7.893,29.539,29.539,0,0,1,2-5c.7-1.459,1.39-2.781,1.941-3.842,1.155-2.229,1.56-3.036,1.5-3.466-.086-.685-1.574-2.116-2.284-2.538-1-.59-1.45-.337-1.6-.2a.412.412,0,0,0-.1.492l.136.27.146-.024a0,0,0,0,0,0,0,3.882,3.882,0,0,1-.492,2.269c-.518,1.181-1.176,2.529-1.871,3.954l-.33.677c-.619-.019-1.322-.019-2.1,0a12.351,12.351,0,0,0,.382-5.451c-1.544-9.137-10.534-12.494-18.231-11.747-9.014.859-16.044,5.15-19.014,9.021a6.361,6.361,0,0,0-1.63,4.764c.36,2.124,2.726,2.817,3,2.891a12.2,12.2,0,0,0,4.795.175c.5-.045.666-.335.661-.569a.6.6,0,0,0-.627-.543c-2.488-.144-3.92-.588-4.032-1.25a4.427,4.427,0,0,1,1.191-3c2.757-3.666,9.6-8.008,16.838-8.836a20.164,20.164,0,0,1,8.58.854c3.212,1.158,5.009,3.194,5.339,6.049a14.444,14.444,0,0,1-1.576,7.876c-3.152.253-6.266.651-7.859.92-1.77.3-3.594.666-5.232,1.048.368-.641.782-1.383,1.215-2.154.533-.952,1.085-1.937,1.625-2.877,3.084-5.355,3.7-6.651,3.718-7.092,0-.768-1.306-2.35-2.358-3.068a2.647,2.647,0,0,0-1.361-.554h0a.591.591,0,0,0-.578.327.42.42,0,0,0,.146.5l.044.031.05.018c.11.041.157.335.175.5.089,1.189-1.249,3.583-2.942,6.614l-.347.62c-1.276,2.3-4.231,7.62-4.806,8.666-9.756,3.071-17.467,7.833-19.666,12.155a4.895,4.895,0,0,0-.441,3.88c1.4,4.113,8.524,4.885,11.4,4.521A4.77,4.77,0,0,0,144.452,486a1.4,1.4,0,0,0,.5.12.481.481,0,0,0,.33-.117.443.443,0,0,0,.133-.447l-.023-.086-.057-.068c-.183-.222-.411-.918.065-3.1a49.236,49.236,0,0,0,16.558-8.681c5.234-4.126,9.053-8.805,10.785-13.2.7-.06,1.343-.107,1.952-.143a30.348,30.348,0,0,0-2.43,6.144,1.889,1.889,0,0,0-.047.676c.1.831,1.063,1.694,1.931,2.229a2.669,2.669,0,0,0,1.8.486c1.017-.172,3.489-3.368,4.861-5.24a2.759,2.759,0,0,0,.034.292,4.53,4.53,0,0,0,1.7,2.418,5.4,5.4,0,0,0,1.578.893c-1.383.787-2.72,1.607-3.97,2.443-4.477,3.013-8.71,7.226-8.068,9.849.787,3.181,5.341,4.777,8.731,4.027,4.5-1,9.614-8.039,11.951-12.529a71.189,71.189,0,0,0,3.4-7.482c.267-.1.505-.188.727-.269.57-.211,1.037-.384,1.605-.586a5.66,5.66,0,0,0,1.521,1.328,2.669,2.669,0,0,0,1.8.486c1.521-.258,6.117-7.012,6.162-7.08,1.594-2.35,2.917-4.466,3.546-5.671A.6.6,0,0,0,211.294,451.9Zm-43.384,9.139c-3.9,6.41-11.723,12.649-20.784,16.561a96.143,96.143,0,0,1,6.891-13.4,47.673,47.673,0,0,1,7.767-2.167C164.056,461.645,166.06,461.305,167.91,461.036Zm-34.49,18.395a1.65,1.65,0,0,1-.165-1.508c.944-3.3,7.659-8.389,15.218-11.6-1.009,2-1.795,3.6-2.448,4.988l-.329.706a66.866,66.866,0,0,0-3.1,7.351,32.856,32.856,0,0,1-5.128,1.127C136.461,480.664,134.237,480.526,133.421,479.431Zm57.211-12.409c-.6,1.336-1.226,2.66-1.839,3.878-2.718,5.258-7.631,10.945-11.76,11.643a1.334,1.334,0,0,1-1.529-.972c-.35-1.4,1.327-4.014,4.484-6.986A52.789,52.789,0,0,1,190.631,467.022Zm4.5-13.62a.545.545,0,0,0-.442.309l-.081.222.308.361.123-.021c.1.049.11.1.115.125.013.173-.215.675-1.38,2.085l-.131.16a55.3,55.3,0,0,1-9.141,8.511,34.935,34.935,0,0,1,5.1-8.825c2.358-3.1,4.728-5.235,6.685-6.024a3.061,3.061,0,0,1,.687-.2,1.323,1.323,0,0,1,.222-.021.444.444,0,0,1,.476.306c.167.4-.288,1.877-1.207,3.452A2.1,2.1,0,0,0,195.133,453.4Zm-1.8,6.34.476-.612c-.606,1.69-1.309,3.517-2.031,5.269-1.4.588-2.809,1.238-4.2,1.932A70.928,70.928,0,0,0,193.33,459.742Z" transform="translate(-130.098 -437.817)" fill="url(#linear-gradient)"/>
            <g id="Group_136902" data-name="Group 136902" transform="translate(49.686)">
              <path id="Path_150348" data-name="Path 150348" d="M601.414,421.429a5.375,5.375,0,0,0-2.668-2.83c-1.168-.51-1.605-.227-1.74-.081l-.478.52.69.149c.22.047.283.288.3.389a13.5,13.5,0,0,1-.982,5.6.793.793,0,0,0,.373.846.813.813,0,0,0,.437.128.929.929,0,0,0,.619-.256l.008-.008a29.955,29.955,0,0,0,3.342-4.029l.021-.047A.6.6,0,0,0,601.414,421.429Z" transform="translate(-570.647 -418.307)" fill="url(#linear-gradient-2)"/>
              <path id="Path_150349" data-name="Path 150349" d="M439.066,445.6c-1.168-.512-1.605-.227-1.74-.081l-.478.52.69.149c.22.047.284.288.3.389a13.506,13.506,0,0,1-.982,5.6.794.794,0,0,0,.371.846.813.813,0,0,0,.437.128.929.929,0,0,0,.619-.256l.008-.008a29.951,29.951,0,0,0,3.342-4.029l.021-.045a.63.63,0,0,0,.074-.381A5.333,5.333,0,0,0,439.066,445.6Z" transform="translate(-436.832 -440.93)" fill="url(#linear-gradient-3)"/>
            </g>
          </g>
          <g id="Group_136904" data-name="Group 136904" transform="translate(74.239)">
            <path id="Path_150350" data-name="Path 150350" d="M619.12,407.184c-4.437-2.245-11.517-2.942-16.484-2.405,6.726-6.032,17.076-17.45,16.378-21.583-.327-1.934-3.661-6.034-8.647-5.19-3.755.635-7.829,3.316-11.178,7.356-2.927,3.53-4.654,7.322-4.3,9.434.405,2.4,3.1,3.664,5.271,3.3,3.207-.543,6.432-7.064,7.116-9.45l0-.016a.532.532,0,0,0-.274-.645.6.6,0,0,0-.726.23l-.016.026c-2.062,3.431-6.381,8.064-7.427,8.24-.342.057-.543,0-.622-.47-.2-1.163,1.354-4.8,3.975-8.366,1.835-2.5,5.568-6.8,9.941-7.534.878-.149,2.948-.343,3.185,1.055.781,4.615-13.459,20.585-18.225,24.928l-.653.23c-4.158,1.466-8.457,2.98-8,5.7.18,1.059.97,2.485,1.845,2.485a.734.734,0,0,0,.133-.011c1.267-.214,3.86-2.03,7.71-5.4a32.589,32.589,0,0,1,7.341-1.845,33.019,33.019,0,0,1,13.169.86l.066.011a.636.636,0,0,0,.658-.42A.448.448,0,0,0,619.12,407.184Z" transform="translate(-588.412 -375.546)" fill="url(#linear-gradient-4)"/>
            <path id="Path_150351" data-name="Path 150351" d="M781.415,378.007c-4.2-2.347-16.3,6.607-19.906,9.406-5.614,4.357-7.488,4.385-8.033,4.2-.224-.078-.259-.212-.261-.217-.191-.939,3.442-8.541,4.924-11.415l6.3-12.889.023-.06a.84.84,0,0,0,.045-.379c-.1-.714-1.976-2.477-2.635-2.869-1-.59-1.45-.337-1.6-.2a.412.412,0,0,0-.1.493l.136.27.167-.028a.323.323,0,0,1,.026.039c.057.112.2.6-.313,2.13-.755,2.237-2.919,6.632-5.01,10.88-.483.98-.957,1.947-1.408,2.869-1.859,3.769-4.169,8.873-4.555,10.843a1.887,1.887,0,0,0-.047.675c.1.831,1.063,1.694,1.931,2.229a3.588,3.588,0,0,0,1.7.491c.149.011.3.016.447.016,4.362,0,9.029-4.6,9.385-4.962,11.909-9.857,16.336-10.707,17.684-10.615.706.049,1.216.052,1.341-.348A.479.479,0,0,0,781.415,378.007Z" transform="translate(-723.119 -363.407)" fill="url(#linear-gradient-5)"/>
          </g>
        </g>
      </g>
    </g>
    <g id="Group_136908" data-name="Group 136908" transform="translate(200.771 391.382)">
      <path id="Path_150352" data-name="Path 150352" d="M619.777,543.186a13.049,13.049,0,0,0-1.587-4l0-.008a1.188,1.188,0,0,0-1.134-.585,11.568,11.568,0,0,0-3.824,1.1,12.565,12.565,0,0,0-1.685.983c-.266.186-.528.379-.781.588,0,0,0,0-.008.006a.341.341,0,0,0,.261.591.021.021,0,0,0,.01,0c.326-.034.645-.078.961-.123.632-.091,1.249-.2,1.855-.3.583-.1,1.157-.2,1.725-.282a1.518,1.518,0,0,1,.667.052.458.458,0,0,0-.113.083c-.782.79-1.579,1.568-2.409,2.326a49.085,49.085,0,0,1-5.248,4.21c-.946.643-1.916,1.265-2.94,1.834-.5.293-1.037.552-1.553.829-.536.254-1.064.518-1.62.748a30.85,30.85,0,0,1-3.4,1.262,32.062,32.062,0,0,1-3.586.893,33.34,33.34,0,0,1-3.717.5,37.271,37.271,0,0,1-3.781.115c-1.264-.02-2.525-.109-3.781-.235-.314-.032-.625-.073-.94-.109l-.935-.126-.933-.143-.927-.16a62.142,62.142,0,0,1-7.234-1.793q-1.781-.554-3.517-1.189c-.462-.17-.928.277-.528.505l.031.018c1.012.577,2.08,1.111,3.188,1.613a43.58,43.58,0,0,0,7.163,2.49c1.276.319,2.592.591,3.941.794a39.961,39.961,0,0,0,4.139.413,37.476,37.476,0,0,0,4.262-.039,36.783,36.783,0,0,0,4.259-.544,35.528,35.528,0,0,0,4.1-1.048l.98-.337.957-.366c.321-.12.624-.261.935-.39.154-.066.311-.13.462-.2l.449-.214c.606-.279,1.174-.59,1.751-.891.556-.319,1.116-.633,1.636-.977.261-.17.534-.332.784-.51l.756-.526c.253-.175.481-.364.722-.544s.483-.363.7-.554a31.411,31.411,0,0,0,6.583-7.359,1.67,1.67,0,0,1,.3.4l0,.01c.3.564.593,1.135.878,1.717.141.292.282.585.421.883s.274.6.411.9c.068.152.138.308.2.463s.133.313.2.471a.023.023,0,0,1,0,.01.33.33,0,0,0,.638-.058,9.135,9.135,0,0,0,.07-1.072A10.762,10.762,0,0,0,619.777,543.186Z" transform="translate(-568.514 -538.182)" fill="#f05a29"/>
      <path id="Path_150353" data-name="Path 150353" d="M587.178,554.464c-.6,0-1.2-.014-1.782-.044a40.457,40.457,0,0,1-4.181-.418c-1.291-.194-2.631-.463-3.978-.8a44.111,44.111,0,0,1-7.231-2.512c-1.163-.528-2.247-1.076-3.222-1.631l-.029-.016a.631.631,0,0,1-.3-.828.944.944,0,0,1,1.166-.41c1.129.415,2.307.813,3.5,1.182a61.353,61.353,0,0,0,7.186,1.782l.923.16.925.141.93.126.334.039q.3.036.593.068c1.366.139,2.59.216,3.745.233a37.06,37.06,0,0,0,3.74-.113,33.3,33.3,0,0,0,3.675-.5,31.645,31.645,0,0,0,3.544-.881,30.46,30.46,0,0,0,3.356-1.247c.428-.178.846-.379,1.25-.573l.345-.165c.178-.1.359-.19.539-.282.33-.172.674-.348.991-.535.9-.5,1.826-1.077,2.916-1.819a48.577,48.577,0,0,0,5.2-4.173c.569-.52,1.156-1.081,1.782-1.7-.452.071-.9.147-1.309.217l-.094.016c-.573.1-1.166.2-1.77.285-.308.044-.637.089-.977.125a.742.742,0,0,1-.769-.457.725.725,0,0,1,.2-.849c.241-.2.5-.392.815-.614a12.963,12.963,0,0,1,1.741-1.016,11.94,11.94,0,0,1,3.959-1.144,1.6,1.6,0,0,1,1.523.779,13.375,13.375,0,0,1,1.642,4.137h0a11.033,11.033,0,0,1,.237,2.213,9.176,9.176,0,0,1-.073,1.124.712.712,0,0,1-.615.624.752.752,0,0,1-.8-.458l0-.006c-.036-.078-.068-.157-.1-.235s-.065-.152-.1-.228c-.071-.165-.138-.318-.206-.468l-.039-.087c-.123-.274-.245-.546-.369-.813q-.207-.442-.418-.876c-.3-.617-.562-1.126-.81-1.587a32.057,32.057,0,0,1-6.34,6.952c-.157.136-.332.269-.5.4-.07.053-.141.107-.211.162-.089.067-.17.13-.253.193-.156.12-.316.245-.488.365l-.755.526c-.167.12-.347.233-.522.343l-.272.173c-.455.3-.948.585-1.424.857l-.232.133-.334.177c-.465.246-.946.5-1.45.732l-.444.212c-.107.048-.212.094-.318.139l-.159.068c-.113.047-.219.092-.324.138-.2.087-.413.178-.63.259l-.956.366-.995.342a35.761,35.761,0,0,1-4.152,1.063,37.018,37.018,0,0,1-4.307.551C588.852,554.436,588.008,554.464,587.178,554.464ZM567.99,548.8c.734.392,1.521.777,2.35,1.153a43.285,43.285,0,0,0,7.1,2.465c1.322.33,2.635.594,3.9.786a39.357,39.357,0,0,0,4.1.41,37.925,37.925,0,0,0,4.216-.037,35.939,35.939,0,0,0,4.21-.539A35.123,35.123,0,0,0,597.911,552l.974-.334.943-.361c.2-.076.394-.159.6-.246.109-.047.217-.094.327-.139.049-.021.1-.045.16-.068.1-.041.193-.081.287-.125l.445-.212c.488-.225.959-.473,1.414-.714l.322-.17.219-.126c.465-.266.946-.541,1.382-.831l.285-.181c.172-.109.334-.211.486-.321l.76-.53c.156-.108.3-.22.455-.34l.256-.2c.066-.052.139-.107.212-.162.167-.128.326-.248.471-.374a31.1,31.1,0,0,0,6.35-7.03c-.857.865-1.639,1.62-2.391,2.308a49.332,49.332,0,0,1-5.292,4.244c-1.114.758-2.057,1.346-2.972,1.853-.327.193-.68.374-1.021.551-.18.094-.359.186-.538.282l-.018.008-.351.168c-.415.2-.842.4-1.286.59a30.972,30.972,0,0,1-3.436,1.276,32.653,32.653,0,0,1-3.627.9,33.893,33.893,0,0,1-3.76.51,37.194,37.194,0,0,1-3.82.117c-1.179-.02-2.427-.1-3.816-.238-.2-.021-.4-.045-.607-.07l-.337-.041-.944-.128-.94-.143-.935-.162a62.193,62.193,0,0,1-7.284-1.8C569.9,549.455,568.931,549.133,567.99,548.8Zm46.965-9.648.076.075a2.071,2.071,0,0,1,.379.5c.275.512.556,1.061.891,1.74.143.295.283.59.424.889.126.272.249.546.374.823l.039.087c.07.156.139.313.207.471.034.071.068.154.1.238.021-.23.032-.473.034-.734a10.078,10.078,0,0,0-.219-2.043h0a12.613,12.613,0,0,0-1.539-3.879.793.793,0,0,0-.748-.4,11.1,11.1,0,0,0-3.692,1.068,12.208,12.208,0,0,0-1.631.951c-.219.154-.407.292-.577.424.256-.029.5-.065.731-.1.594-.086,1.183-.185,1.749-.282l.094-.016c.535-.091,1.14-.193,1.732-.283a1.863,1.863,0,0,1,.847.066l.439.136,0-.006.011.011.479.147Zm-6.055.353Zm-.049-.117Z" transform="translate(-566.397 -536.109)" fill="#f05a29"/>
    </g>
    <g id="Group_136910" data-name="Group 136910" transform="translate(251.066 365.759)">
      <g id="Group_136909" data-name="Group 136909">
        <path id="Path_150354" data-name="Path 150354" d="M881.89,383.828l-1.924-1.4-1.9,1.383.193-.65c0-.011.006-.021.01-.031s.01-.034.016-.052l.105-.322c.126-.389.258-.792.39-1.187-.343-.248-.692-.5-1.029-.744l-.254-.183-.044-.032a.318.318,0,0,0-.031-.023l-.538-.411h1.118c.4,0,.818,0,1.228,0,.125-.392.253-.789.378-1.173l.109-.337.016-.047.013-.036.222-.654.726,2.248h2.375l-1.923,1.391Zm-3.619-3.2.855.617a.305.305,0,0,1,.121.368c-.11.334-.222.674-.33,1.006l1.048-.765,1.048.765-.4-1.233,1.048-.758h-1.294l-.4-1.234c-.109.335-.219.675-.326,1.012a.3.3,0,0,1-.309.224h0Z" transform="translate(-876.89 -377.93)" fill="#f05a29"/>
      </g>
    </g>
  </g>
</svg>
