<svg xmlns="http://www.w3.org/2000/svg" xmlns:xlink="http://www.w3.org/1999/xlink" width="105" height="50" viewBox="0 0 105 50">
  <defs>
    <clipPath id="clip-path">
      <rect id="Rectangle_5161" data-name="Rectangle 5161" width="103.161" height="40" fill="none"/>
    </clipPath>
  </defs>
  <g id="Gostor_Logo" data-name="Gostor Logo" transform="translate(-200 -15)">
    <g id="GoStor_Logo-2" data-name="GoStor Logo" transform="translate(200 20)">
      <g id="Group_1620" data-name="Group 1620" clip-path="url(#clip-path)">
        <path id="Path_50285" data-name="Path 50285" d="M33.511,40H6.489A6.489,6.489,0,0,1,0,33.511V6.489A6.489,6.489,0,0,1,6.489,0H40V33.511A6.489,6.489,0,0,1,33.511,40" transform="translate(0 0)" fill="#3a9545"/>
        <path id="Path_50286" data-name="Path 50286" d="M41.995,97.242,41.943,112.8a6.643,6.643,0,0,1-2.164,5.323,8.444,8.444,0,0,1-5.705,1.825,10.339,10.339,0,0,1-6.764-2.3l1.417-2.744a7.867,7.867,0,0,0,5.056,1.76,5.024,5.024,0,0,0,3.272-.961,3.466,3.466,0,0,0,1.2-2.845q.005-1.576.075-2.414a5.981,5.981,0,0,1-2.234,1.5,7.466,7.466,0,0,1-2.734.494,7.046,7.046,0,0,1-3.735-1,6.735,6.735,0,0,1-2.522-2.774,9.393,9.393,0,0,1,.027-8.046,6.9,6.9,0,0,1,2.524-2.774,6.812,6.812,0,0,1,3.691-.993,7.6,7.6,0,0,1,3.132.648,5.875,5.875,0,0,1,2.357,1.919l.745-2.176ZM37.3,108a5.483,5.483,0,0,0,.039-6.671,3.976,3.976,0,0,0-3.164-1.3,3.93,3.93,0,0,0-3.089,1.264,5.476,5.476,0,0,0-.023,6.688,3.868,3.868,0,0,0,3.046,1.3A4.027,4.027,0,0,0,37.3,108" transform="translate(-23.425 -86.542)" fill="#fff"/>
        <path id="Path_50287" data-name="Path 50287" d="M197.077,111.891a7.19,7.19,0,0,1-2.84-2.825,8.169,8.169,0,0,1-1.009-4.094,8.075,8.075,0,0,1,1.036-4.07,7.227,7.227,0,0,1,2.859-2.79,8.441,8.441,0,0,1,4.144-.992,8.537,8.537,0,0,1,4.154,1.02,7.2,7.2,0,0,1,2.857,2.809,8.08,8.08,0,0,1,1.009,4.077,8.17,8.17,0,0,1-1.036,4.086,7.175,7.175,0,0,1-2.876,2.806,8.542,8.542,0,0,1-4.16.992,8.439,8.439,0,0,1-4.137-1.02m7.286-3.512a5.364,5.364,0,0,0,.023-6.738,4.411,4.411,0,0,0-6.252,0,5.26,5.26,0,0,0-.022,6.705,4.41,4.41,0,0,0,6.252.038" transform="translate(-172.671 -86.789)" fill="#fff"/>
        <path id="Path_50288" data-name="Path 50288" d="M953.486,305.814a.843.843,0,0,1-.68.277.861.861,0,0,1-.691-.282,1.044,1.044,0,0,1,0-1.331.86.86,0,0,1,.693-.277.846.846,0,0,1,.678.282,1.044,1.044,0,0,1,0,1.331" transform="translate(-850.614 -271.839)" fill="#3a9545"/>
        <path id="Path_50289" data-name="Path 50289" d="M916.5,252.649a2.911,2.911,0,0,1-1.082,1.135,3.167,3.167,0,0,1-1.7.433,3.209,3.209,0,0,1-1.656-.425,2.842,2.842,0,0,1-1.088-1.142,3.321,3.321,0,0,1-.374-1.572,3.255,3.255,0,0,1,.806-2.207l.969.709a2.2,2.2,0,0,0-.388.644,2.174,2.174,0,0,0-.122.752,1.7,1.7,0,0,0,.508,1.267,2.077,2.077,0,0,0,2.709.016,1.679,1.679,0,0,0,.51-1.243,2.169,2.169,0,0,0-.144-.826,2.218,2.218,0,0,0-.464-.694l.974-.729a3.5,3.5,0,0,1,.7,1.074,3.588,3.588,0,0,1,.215,1.325,3.151,3.151,0,0,1-.371,1.483" transform="translate(-813.728 -222.302)" fill="#3a9545"/>
        <path id="Path_50290" data-name="Path 50290" d="M916.642,193.348a2.855,2.855,0,0,1-1.122,1.128,3.241,3.241,0,0,1-1.626.4,3.2,3.2,0,0,1-1.616-.411,2.868,2.868,0,0,1-1.108-1.135,3.353,3.353,0,0,1-.394-1.645,3.392,3.392,0,0,1,.4-1.65A2.862,2.862,0,0,1,912.3,188.9a3.211,3.211,0,0,1,1.619-.4,3.246,3.246,0,0,1,1.623.411,2.846,2.846,0,0,1,1.114,1.142,3.4,3.4,0,0,1,.394,1.652,3.357,3.357,0,0,1-.406,1.643m-1.395-2.894a2.13,2.13,0,0,0-2.675-.009,1.751,1.751,0,0,0,0,2.483,2.088,2.088,0,0,0,2.662.009,1.752,1.752,0,0,0,.015-2.483" transform="translate(-813.886 -168.447)" fill="#3a9545"/>
        <path id="Path_50291" data-name="Path 50291" d="M911.626,97.648a2.446,2.446,0,0,1,1.673-.527l3.82.013,0,1.451-3.661-.012a1.23,1.23,0,0,0-.833.257.879.879,0,0,0-.3.7,1.138,1.138,0,0,0,.476.994,1.908,1.908,0,0,0,1.131.343l3.181.011,0,1.438-3.674-.012a1.246,1.246,0,0,0-.8.25.864.864,0,0,0-.322.718,1.126,1.126,0,0,0,.476.98,1.907,1.907,0,0,0,1.131.343l3.181.011,0,1.451-5.937-.02,0-.985.946-.29a2.218,2.218,0,0,1-.816-.788,2.108,2.108,0,0,1-.283-1.106,2.045,2.045,0,0,1,.283-1.084,1.815,1.815,0,0,1,.774-.7,2.117,2.117,0,0,1-.77-.788,2.282,2.282,0,0,1-.275-1.146,1.9,1.9,0,0,1,.611-1.5" transform="translate(-814.088 -86.789)" fill="#3a9545"/>
        <path id="Path_50292" data-name="Path 50292" d="M397.737,111.93l1.45-2.607a7.533,7.533,0,0,0,4.086,1.269,2.747,2.747,0,0,0,1.611-.419,1.323,1.323,0,0,0,.607-1.135,1.384,1.384,0,0,0-.7-1.207,12.769,12.769,0,0,0-2.176-1.042,9.272,9.272,0,0,1-3.112-1.859,3.715,3.715,0,0,1-1.1-2.8,3.649,3.649,0,0,1,1.536-3.116,6.2,6.2,0,0,1,3.775-1.107,9.528,9.528,0,0,1,4.89,1.374l-1.282,2.472a7.09,7.09,0,0,0-3.316-.893,3.3,3.3,0,0,0-1.526.3,1.03,1.03,0,0,0-.59.982,1.419,1.419,0,0,0,.683,1.172,8.4,8.4,0,0,0,2.025.974,9.936,9.936,0,0,1,3.329,1.911,3.728,3.728,0,0,1,1.147,2.853,4.078,4.078,0,0,1-1.537,3.336,6.157,6.157,0,0,1-4.01,1.225,10.48,10.48,0,0,1-5.794-1.682" transform="translate(-355.425 -87.49)" fill="#3a9545"/>
        <path id="Path_50293" data-name="Path 50293" d="M517.089,71.219a5.071,5.071,0,0,1-1.178-3.675l.024-7.785-2.647-.21.01-2.916,2.648.009.117-4.794,3.553.012-.016,4.794,4.626.015-.01,3.118-4.627-.016-.023,7.417a2.093,2.093,0,0,0,.414,1.476,1.618,1.618,0,0,0,1.222.44,4.6,4.6,0,0,0,2.517-.763l1.164,2.753a8.366,8.366,0,0,1-4.53,1.359,4.348,4.348,0,0,1-3.265-1.235" transform="translate(-458.683 -46.332)" fill="#3a9545"/>
        <path id="Path_50294" data-name="Path 50294" d="M626.017,111.891a7.194,7.194,0,0,1-2.84-2.825,8.164,8.164,0,0,1-1.009-4.094,8.071,8.071,0,0,1,1.036-4.07,7.223,7.223,0,0,1,2.859-2.79,8.438,8.438,0,0,1,4.143-.992,8.539,8.539,0,0,1,4.154,1.02,7.206,7.206,0,0,1,2.857,2.809,8.082,8.082,0,0,1,1.009,4.077,8.173,8.173,0,0,1-1.036,4.087,7.17,7.17,0,0,1-2.876,2.806,8.538,8.538,0,0,1-4.16.992,8.44,8.44,0,0,1-4.137-1.02m7.286-3.512a5.364,5.364,0,0,0,.023-6.738,4.411,4.411,0,0,0-6.252,0,5.26,5.26,0,0,0-.022,6.705,4.411,4.411,0,0,0,6.252.038" transform="translate(-555.98 -86.789)" fill="#3a9545"/>
        <path id="Path_50295" data-name="Path 50295" d="M795.408,97.766l-.949,3.081a5.75,5.75,0,0,0-1.943-.342,3.424,3.424,0,0,0-2.584,1,3.789,3.789,0,0,0-.982,2.746l-.027,8.668-3.654-.012.051-15.474,2.481.008.7,2.215a4.552,4.552,0,0,1,1.75-1.888,4.979,4.979,0,0,1,2.583-.645,5.084,5.084,0,0,1,2.579.646" transform="translate(-701.728 -86.789)" fill="#3a9545"/>
        <path id="Path_50296" data-name="Path 50296" d="M261.859,30.34a25.141,25.141,0,0,1,2.021-2.967c.364-.47.739-.928,1.122-1.38.19-.227.388-.447.582-.671l.3-.33.156-.171a.928.928,0,0,1,1.062-.209.945.945,0,0,1,.167.1.956.956,0,0,1,.074.061l.034.033.026.027.149.164.3.329c.195.223.392.444.584.669.384.451.763.907,1.128,1.376a24.838,24.838,0,0,1,2.03,2.961,24.872,24.872,0,0,1-2.8-2.25c-.44-.4-.866-.812-1.286-1.229-.21-.209-.415-.423-.623-.634l-.3-.323-.152-.161a.351.351,0,0,0,.052.047.392.392,0,0,0,.229.078.4.4,0,0,0,.292-.125l-.145.155-.3.323c-.207.212-.41.427-.621.636-.418.419-.844.832-1.282,1.234a25.152,25.152,0,0,1-2.788,2.261" transform="translate(-234.002 -21.917)" fill="#fff"/>
      </g>
    </g>
    <rect id="Rectangle_5209" data-name="Rectangle 5209" width="105" height="50" transform="translate(200 15)" fill="none"/>
  </g>
</svg>
