<svg id="visual" viewBox="0 0 1280 720" width="1280" height="720" xmlns="http://www.w3.org/2000/svg" xmlns:xlink="http://www.w3.org/1999/xlink" version="1.1"><path d="M0 223L30.5 223.3C61 223.7 122 224.3 183 217.8C244 211.3 305 197.7 366 191C427 184.3 488 184.7 548.8 195.7C609.7 206.7 670.3 228.3 731.2 221.3C792 214.3 853 178.7 914 174.8C975 171 1036 199 1097 217.5C1158 236 1219 245 1249.5 249.5L1280 254L1280 0L1249.5 0C1219 0 1158 0 1097 0C1036 0 975 0 914 0C853 0 792 0 731.2 0C670.3 0 609.7 0 548.8 0C488 0 427 0 366 0C305 0 244 0 183 0C122 0 61 0 30.5 0L0 0Z" fill="#ab01fc"></path><path d="M0 125L30.5 136.5C61 148 122 171 183 181.7C244 192.3 305 190.7 366 187C427 183.3 488 177.7 548.8 164.7C609.7 151.7 670.3 131.3 731.2 123.3C792 115.3 853 119.7 914 117.3C975 115 1036 106 1097 106.2C1158 106.3 1219 115.7 1249.5 120.3L1280 125L1280 0L1249.5 0C1219 0 1158 0 1097 0C1036 0 975 0 914 0C853 0 792 0 731.2 0C670.3 0 609.7 0 548.8 0C488 0 427 0 366 0C305 0 244 0 183 0C122 0 61 0 30.5 0L0 0Z" fill="#8c1beb"></path><path d="M0 170L30.5 161C61 152 122 134 183 132.7C244 131.3 305 146.7 366 143.2C427 139.7 488 117.3 548.8 118.2C609.7 119 670.3 143 731.2 145.2C792 147.3 853 127.7 914 117.7C975 107.7 1036 107.3 1097 109C1158 110.7 1219 114.3 1249.5 116.2L1280 118L1280 0L1249.5 0C1219 0 1158 0 1097 0C1036 0 975 0 914 0C853 0 792 0 731.2 0C670.3 0 609.7 0 548.8 0C488 0 427 0 366 0C305 0 244 0 183 0C122 0 61 0 30.5 0L0 0Z" fill="#6e23d8"></path><path d="M0 109L30.5 100.5C61 92 122 75 183 78.2C244 81.3 305 104.7 366 115.3C427 126 488 124 548.8 113.2C609.7 102.3 670.3 82.7 731.2 71C792 59.3 853 55.7 914 66C975 76.3 1036 100.7 1097 99.7C1158 98.7 1219 72.3 1249.5 59.2L1280 46L1280 0L1249.5 0C1219 0 1158 0 1097 0C1036 0 975 0 914 0C853 0 792 0 731.2 0C670.3 0 609.7 0 548.8 0C488 0 427 0 366 0C305 0 244 0 183 0C122 0 61 0 30.5 0L0 0Z" fill="#5126c4"></path><path d="M0 24L30.5 25.5C61 27 122 30 183 32.3C244 34.7 305 36.3 366 40C427 43.7 488 49.3 548.8 53.8C609.7 58.3 670.3 61.7 731.2 65.2C792 68.7 853 72.3 914 68.5C975 64.7 1036 53.3 1097 49.8C1158 46.3 1219 50.7 1249.5 52.8L1280 55L1280 0L1249.5 0C1219 0 1158 0 1097 0C1036 0 975 0 914 0C853 0 792 0 731.2 0C670.3 0 609.7 0 548.8 0C488 0 427 0 366 0C305 0 244 0 183 0C122 0 61 0 30.5 0L0 0Z" fill="#3325b0"></path></svg>