<svg xmlns="http://www.w3.org/2000/svg" xmlns:xlink="http://www.w3.org/1999/xlink" width="2000" zoomAndPan="magnify" viewBox="0 0 1500 449.999984" height="600" preserveAspectRatio="xMidYMid meet" version="1.0"><path fill="#ffffff00" d="M 1372.5 0.113281 C 1341.75 97.328125 1278.375 173.03125 1194.300781 226.074219 C 1183.429688 232.933594 1172.210938 239.433594 1160.640625 245.574219 C 1005.226562 327.683594 791.640625 340.613281 582.601562 278.316406 C 572.25 275.226562 561.898438 272.421875 551.550781 269.902344 C 486.074219 253.835938 420.976562 248.496094 358.484375 250.402344 C 260.789062 253.3125 169.484375 273.816406 93.300781 298.476562 C 58.800781 309.53125 27.464844 321.503906 0 333.113281 L 0 0.113281 Z M 1372.5 0.113281 " fill-opacity="1" fill-rule="nonzero"/><path fill="#f8585f" d="M 1500 0.113281 L 1500 346.71875 C 1500 346.71875 1380.195312 271.71875 1210.5 229.914062 C 1205.160156 228.59375 1199.765625 227.3125 1194.316406 226.074219 C 1076.175781 199.074219 935.746094 189.066406 795.316406 230.902344 C 780.226562 235.402344 765.113281 239.507812 749.984375 243.21875 C 717.496094 251.269531 684.664062 257.523438 651.492188 261.972656 C 618.316406 266.421875 584.996094 269.046875 551.535156 269.84375 C 484.230469 271.34375 419.101562 264.699219 358.46875 250.34375 C 335.097656 244.824219 312.105469 238.015625 289.5 229.914062 C 169.859375 186.863281 74.113281 109.613281 23.730469 0.113281 Z M 1500 0.113281 " fill-opacity="1" fill-rule="nonzero"/><path fill="#eb0913" d="M 1476.269531 0.113281 C 1425.886719 109.613281 1330.140625 186.863281 1210.5 229.914062 C 1194.300781 235.753906 1177.679688 240.953125 1160.640625 245.511719 C 1037.25 278.632812 893.640625 278.511719 750.015625 243.21875 C 734.894531 239.515625 719.789062 235.414062 704.699219 230.902344 C 557.851562 187.148438 410.941406 200.015625 289.546875 229.914062 C 222.007812 246.726562 156.566406 269.558594 93.226562 298.402344 C 34.710938 324.984375 0 346.71875 0 346.71875 L 0 0.113281 Z M 1476.269531 0.113281 " fill-opacity="1" fill-rule="nonzero"/></svg>